<?xml version="1.0" encoding="UTF-8"?><svg id="Ebene_1" xmlns="http://www.w3.org/2000/svg" viewBox="0 0 243.63 53.06"><defs><style>.cls-1{fill:currentColor;}</style></defs><path class="cls-1" d="M24.28,52.1h-9.92V7.91H0v-3.06h38.8v3.06h-14.52v44.18Z"/><path class="cls-1" d="M70.32,1.27l9.36-1v51.83h-9.36V1.27Z"/><path class="cls-1" d="M135.45,17.54h0l9.36-1v35.56h-9.36V17.54ZM139.85,1.09c2.64,0,4.64,2,4.64,4.72,0,2.56-2,4.72-4.72,4.72-2.4,0-4.48-2.16-4.48-4.8s2.08-4.64,4.48-4.64h.08Z"/><path class="cls-1" d="M243.63,30.02c0-9.12-2.93-13.44-9.57-13.44-3.69,0-8.96,4.22-11.35,7.64h-.54V.32l-8.78.94v50.85h9.36v-21.66c1.17-6.03,6.19-9.39,8.08-9.48,3.34-.17,3.52,1.06,3.52,8.99v22.16h9.28v-22.08Z"/><path class="cls-1" d="M171.93,27.24c-1.68-4.16-3.69-8.26-7.61-8.26-2.56,0-4.32,1.45-4.32,4.41,0,3.12,2.48,5.12,5.68,6.72,5.92,2.96,9.84,5.68,9.84,11.44,0,7.84-7.04,11.52-13.36,11.52-3.84,0-7.6-1.44-9.2-2.32-.48-1.2-1.34-6.68-1.34-10.36l1.86-.39c1.92,5.12,5,10.41,9.8,10.41,2.64,0,4.4-1.18,4.4-3.9s-1.04-4.8-5.68-7.28c-4-2.08-9.6-5.36-9.6-11.36,0-6.32,4.56-11.2,12.72-11.28,3.28-.08,5.44.8,6.96,1.44.72,1.84,1.76,6.92,1.92,8.28l-2.06.94Z"/><path class="cls-1" d="M207.85,43.46c-2.8,2.32-4.15,3.27-8.41,3.27-3.76,0-10.79-3.76-10.79-14.8,0-6.95.2-9.63,3.93-11.49,3.15-1.58,5.62.74,8.72,3.69.64.67,1.55,1.1,2.55,1.1,1.95,0,3.54-1.58,3.54-3.54,0-1.2-.6-2.25-1.51-2.89v-.02c-1.52-1.16-4.46-2.2-6.54-2.2h-.08c-2.5,0-7.17.94-12.13,4.7-5.12,3.76-7.44,9.38-7.44,15.06,0,8.4,6.05,16.72,15.91,16.72,4.96,0,10.36-3.74,13.45-8.07l-1.2-1.52Z"/><path class="cls-1" d="M110.15,52.1h9.23v-21.66c1.05-5,2.39-6.24,3.61-6.58,1.09-.31,1.21,0,2.65.54.45.17.94.28,1.45.28,2.24,0,4.05-1.81,4.05-4.05s-1.81-4.05-4.05-4.05c-3.74,0-5.91,3.8-7.74,7.64h-.55v-7.6s-8.63.92-8.63.92v34.56Z"/><path class="cls-1" d="M89.41,20.06c0-2.32.14-5.56.48-7.4.34-1.79,1.39-6.8,6.6-10.4,2.8-1.94,5.7-2.26,8.2-2.26,2.82,0,4.37.77,5.27,1.47,0,0,0,0,.01,0,.96.63,1.59,1.72,1.59,2.95,0,1.95-1.58,3.54-3.54,3.54-.98,0-1.87-.4-2.51-1.04h0c-2.23-2.26-2.38-5.01-4.91-4.31-2.13.59-2.04,1.66-2.04,3.98v10.86l.08.08h4.52v3.25h-4.52v31.31h-9.22V20.06Z"/><path class="cls-1" d="M35.26,26.71c0,1.95,1.58,3.54,3.54,3.54,1.66,0,3.04-1.15,3.42-2.69h.01c.8-3.04,1.09-4.65,1.74-5.73.75-1.25,2.65-1.99,3.85-2.41,2.96-1.04,3.82,3.22,3.82,8.75v1.71c-1.55,2.73-7.43,4.61-12.17,6.48-3.63,1.43-5.53,4.35-5.53,8.11,0,4.48,3.75,8.57,10.07,8.57,1.52,0,6.01-2.79,8.74-4.63.32.96,1.06,2,2.08,2.89,1.17,1.02,2.65,1.61,3.94,1.61l5.26-3.56-.65-1.7s-.44.18-.84.29c-1.42.39-1.97.08-1.97-3.2v-15.62c0-4.72-.63-7.67-3.6-10.12-1.73-1.43-3.37-2.44-6.41-2.44-2.32,0-7.2,2.2-11.68,5.16-3.43,2.26-3.62,4.2-3.62,4.98ZM51.38,44.23c0,2.95-1.79,3.82-2.72,4.1-3.79,1.18-5.65-1.5-5.29-6.69.17-2.56.87-4.09,4.01-5.6,2.19-1.05,3.56-1.77,4-2.68,0,0,0,6.48,0,10.86Z"/></svg>